<svg width="310" height="292" viewBox="0 0 310 292" fill="none" xmlns="http://www.w3.org/2000/svg">
<g clip-path="url(#clip0_206_935)">
<path d="M0.198109 176.555C-1.07712 169.461 3.68098 162.683 10.8256 161.416C17.9703 160.15 24.7959 164.875 26.0711 171.97C27.3464 179.064 22.5883 185.842 15.4436 187.109C8.29898 188.375 1.47334 183.65 0.198109 176.555Z" fill="#4DB38C"/>
<path d="M5.3248 181.638C1.22601 177.353 1.40104 170.58 5.71574 166.51C10.0304 162.44 16.8509 162.614 20.9497 166.898C25.0485 171.183 24.8735 177.956 20.5588 182.026C16.2441 186.096 9.42359 185.922 5.3248 181.638Z" fill="#C5F9C5"/>
<path d="M20.4075 170.766C19.6531 170.853 13.9587 174.241 13.9587 174.241C13.9587 174.241 19.7845 177.402 20.5438 177.455C21.303 177.513 22.3981 176.919 22.3445 174.072C22.2861 171.221 21.1619 170.675 20.4124 170.762L20.4075 170.766ZM5.74314 171.061C6.5024 171.119 12.3282 174.275 12.3282 174.275C12.3282 174.275 6.63382 177.663 5.87944 177.75C5.12505 177.837 4.00075 177.291 3.94721 174.44C3.88881 171.588 4.98876 170.998 5.74802 171.056L5.74314 171.061ZM17.935 182.061C15.4869 183.545 14.4162 182.902 14.0852 182.221C13.7543 181.544 13.5693 174.952 13.5693 174.952C13.5693 174.952 19.3854 178.132 19.8429 178.731C20.3004 179.336 20.388 180.573 17.9399 182.057L17.935 182.061ZM12.2017 166.306C12.5326 166.982 12.7176 173.575 12.7176 173.575C12.7176 173.575 6.9015 170.394 6.444 169.795C5.9865 169.191 5.89891 167.954 8.34702 166.47C10.7951 164.986 11.8659 165.629 12.1968 166.31L12.2017 166.306ZM8.78503 182.313C6.25905 180.964 6.27853 179.722 6.70196 179.094C7.12539 178.466 12.7565 174.981 12.7565 174.981C12.7565 174.981 12.9318 181.573 12.6397 182.264C12.3477 182.96 11.3159 183.661 8.78503 182.313ZM19.585 169.437C19.1615 170.066 13.5304 173.55 13.5304 173.55C13.5304 173.55 13.3552 166.958 13.6472 166.267C13.9392 165.571 14.971 164.87 17.5019 166.219C20.0279 167.567 20.0084 168.809 19.585 169.437Z" fill="#63DB63"/>
<path d="M145.183 218.991C155.886 200.011 141.543 189.804 141.543 189.804L130.422 185.121C129.57 184.763 119.782 181.085 119.189 181.795C119.189 181.795 101.604 197.735 63.3054 184.512C53.5859 181.157 37.3934 181.032 31.6843 194.656C18.6845 225.68 80.9629 242.523 105.429 222.789L145.178 218.995L145.183 218.991Z" fill="#B09F8B"/>
<path d="M18.193 145.117C11.6478 145.117 6.34182 139.849 6.34182 133.349C6.34182 126.849 11.6478 121.58 18.193 121.58C24.7382 121.58 30.0442 126.849 30.0442 133.349C30.0442 139.849 24.7382 145.117 18.193 145.117Z" fill="#E6AFA4"/>
<path d="M132.717 109.584C108.375 86.8295 108.607 47.3228 133.235 21.3434C157.863 -4.636 197.561 -7.25024 221.902 15.5043C246.244 38.2589 246.012 77.7655 221.384 103.745C196.756 129.724 157.058 132.339 132.717 109.584Z" fill="#B09F8B"/>
<path d="M176.225 109.348L163.989 106.859C163.989 106.859 173.938 71.887 193.654 51.5785C218.281 25.6008 257.981 22.9909 282.321 45.7498C306.661 68.5087 306.428 108.014 281.8 133.992C278.092 137.907 274.038 141.285 269.745 144.132C235.661 166.745 200.073 154.039 183.832 146.592C157.336 134.446 166.038 123.359 178.045 116.177C177.306 113.939 176.697 111.663 176.23 109.353L176.225 109.348Z" fill="#D9D0C5"/>
<path d="M188.568 101.344C188.568 101.344 195.226 77.9331 208.425 64.3377C224.915 46.9484 251.489 45.1988 267.783 60.4326C284.078 75.6664 283.923 102.118 267.433 119.507C264.951 122.127 262.235 124.388 259.364 126.293C236.547 141.43 210.83 135.785 199.957 130.797C182.221 122.663 188.568 101.344 188.568 101.344Z" fill="#E6AFA4"/>
<path d="M42.4405 108.391C42.4405 108.391 -3.49936 131.682 33.7528 162.323C71.005 192.965 155.156 213.525 175.787 211.268C196.418 209.01 212.455 191.611 215.638 174.038C218.821 156.465 215.794 121.822 179.822 104.22C143.85 86.6181 88.2002 81.4419 42.4405 108.391Z" fill="#D9D0C5"/>
<path d="M68.3282 160.641C68.7613 160.839 68.9998 161.308 68.9025 161.767C68.4742 163.855 66.8388 169.665 61.3683 174.367C59.9325 175.6 58.3459 176.479 56.7008 177.035C56.4283 177.127 56.1314 177.093 55.8783 176.958C49.887 173.724 44.3094 170.312 39.3304 166.75C39.1163 166.596 38.9703 166.373 38.9168 166.117C38.2743 162.855 38.2792 158.95 39.4278 154.344C39.5446 153.88 39.9729 153.561 40.4498 153.575C43.5307 153.672 54.9195 154.46 68.3233 160.636L68.3282 160.641Z" fill="#E6AFA4"/>
<path d="M100.621 125.587C100.621 125.587 88.3899 125.771 78.5147 129.719C78.5147 129.719 86.9687 132.629 97.7979 140.816" stroke="#493F34" stroke-width="3" stroke-linecap="round" stroke-linejoin="round"/>
<path d="M41.7639 206.971C49.2299 211.934 45.6867 217.642 45.6867 217.642C45.6867 217.642 39.2719 215.545 41.7639 206.971Z" fill="#4BC755"/>
<path d="M158.704 298.944C161.775 304.014 165.119 308.103 168.608 311.375C174.157 316.585 180.055 319.721 185.76 321.442C186.66 321.708 187.551 321.944 188.436 322.147C195.221 323.689 201.587 323.322 206.59 322.172C208.153 321.809 209.72 321.374 211.272 320.847C211.968 320.615 212.66 320.359 213.356 320.089C220.807 317.15 228.064 311.925 234.405 302.632C234.985 301.786 235.554 300.906 236.114 299.993C237.734 297.359 239.277 294.43 240.747 291.182C243.332 285.474 245.731 280.124 248.15 275.228C248.476 274.561 248.841 273.928 249.133 273.261C261.116 246.051 279.927 244.417 285.052 244.437C289.51 244.451 294.343 245.592 297.521 247.704C297.521 247.704 319.189 259.83 305.425 285.242C305.425 285.242 312.915 253.895 287.802 249.719C287.329 249.661 285.543 249.642 284.385 249.632C283.713 249.627 283.037 249.647 282.37 249.734C278.092 250.29 273.75 252.112 269.38 255.292C268.713 255.775 268.046 256.292 267.38 256.838C266.338 257.689 265.296 258.617 264.255 259.622C259.295 264.407 255.85 270.482 252.988 276.866C252.637 277.635 252.272 278.399 251.975 279.191C238.294 315.294 224.457 323.351 214.572 327.261C213.852 327.546 213.117 327.817 212.363 328.063C206.795 329.895 200.244 330.712 192.228 330.02C190.539 329.875 188.913 329.648 187.356 329.344C186.392 329.16 185.448 328.948 184.538 328.706C176.157 326.536 169.796 322.317 165.318 318.329C159.794 313.404 157.151 308.818 157.151 308.818C157.151 308.818 151.092 300.94 158.709 298.949L158.704 298.944Z" fill="#E6AFA4"/>
<path d="M106.145 270.825C106.145 270.825 93.4419 306.372 82.1796 316.343C82.1796 316.343 65.5685 310.369 58.6865 321.756C51.8045 333.143 54.2137 347.845 76.7091 355.674C99.2045 363.504 109.143 359.517 124.43 335.704C139.718 311.887 142.258 283.101 163.157 286.866L106.14 270.825H106.145Z" fill="#B09F8B"/>
<path opacity="0.8" d="M15.4869 176.068H35.6753H55.8685L47.1323 236.129H24.2183L15.4869 176.068Z" fill="#AFDBF8"/>
<path d="M54.0483 188.639L47.1226 236.245H24.2086L17.2878 188.639H54.0483Z" fill="url(#paint0_linear_206_935)"/>
<path d="M33.0179 208.02C33.4024 208.745 33.1347 209.648 32.4241 210.04L27.854 212.539C27.1386 212.93 26.2528 212.655 25.8683 211.934L23.4104 207.295C23.0259 206.57 23.2936 205.666 24.0091 205.275L28.5792 202.776C29.2947 202.384 30.1804 202.655 30.5649 203.38L33.0228 208.02H33.0179Z" fill="white" stroke="white" stroke-miterlimit="10"/>
<path d="M40.8587 200.809C40.5667 201.577 39.7198 201.959 38.9654 201.664L34.1227 199.775C33.3683 199.48 32.9887 198.619 33.2807 197.851L35.1399 192.936C35.432 192.167 36.2788 191.785 37.0381 192.08L41.8808 193.97C42.6351 194.265 43.0148 195.125 42.7228 195.894L40.8587 200.809Z" fill="white" stroke="white" stroke-miterlimit="10"/>
<path d="M15.4868 176.068L24.2231 236.129H47.137L55.8733 176.068H58.8179L50.0816 244.48H21.2834L12.5471 176.068H15.4917H15.4868Z" fill="white"/>
<path d="M31.8645 204.762C37.5735 191.143 53.766 191.263 63.4855 194.622C101.784 207.846 119.369 191.906 119.369 191.906C119.962 191.196 129.745 194.874 130.602 195.231L138.842 198.702L175.967 211.234C175.967 211.234 175.953 211.33 175.928 211.504C177.987 215.173 203.889 263.672 158.733 305.362C158.733 305.362 160.281 318.001 148.133 343.534C135.985 369.072 126.63 374.272 103.322 369.313C80.0139 364.355 75.7601 350.073 81.143 337.918C86.5259 325.763 103.76 329.61 103.76 329.61C108.247 324.492 112.365 314.12 115.529 304.314C96.6883 297.75 88.2635 280.516 87.3533 258.95C87.0662 252.165 87.5188 245.959 88.5019 240.309C60.3414 245.78 21.3176 229.942 31.8693 204.767L31.8645 204.762Z" fill="#D9D0C5"/>
</g>
<defs>
<linearGradient id="paint0_linear_206_935" x1="35.6656" y1="236.245" x2="35.6656" y2="188.639" gradientUnits="userSpaceOnUse">
<stop stop-color="white"/>
<stop offset="1" stop-color="#6AFFFC"/>
</linearGradient>
<clipPath id="clip0_206_935">
<rect width="310" height="371" fill="white" transform="matrix(-1 0 0 1 310 0)"/>
</clipPath>
</defs>
</svg>
