<svg width="420" height="109" viewBox="0 0 420 109" fill="none" xmlns="http://www.w3.org/2000/svg">
<path fill-rule="evenodd" clip-rule="evenodd" d="M44.364 0C19.8624 0 0 19.8624 0 44.364C0 68.8655 19.8624 88.7279 44.364 88.7279H241.904C241.996 89.0076 242.156 89.2761 242.392 89.5132L260.191 107.408C261.45 108.674 263.609 107.782 263.609 105.998V88.7279H375.636C400.138 88.7279 420 68.8655 420 44.364C420 19.8624 400.138 0 375.636 0H44.364Z" fill="#F7D157"/>
<path d="M68.32 22.08V39.72H66.12V22.08H68.32ZM53.72 34.88C58.32 32.68 60.46 29.7 60.86 25.68H54.6V23.96H63.08C63.06 29.22 61.02 33.68 54.84 36.6L53.72 34.88ZM87.0052 31.24V33H70.8452V31.24H87.0052ZM72.2052 29.92V22.76H74.2452V24.64H76.3252V22.76H78.3252V29.92H72.2052ZM72.8052 39.4V34.24H74.9652V37.64H85.2452V39.4H72.8052ZM74.2452 28.16H76.3252V26.32H74.2452V28.16ZM79.4852 29.92V22.76H81.5652V24.64H83.5652V22.76H85.6052V29.92H79.4852ZM81.5652 28.16H83.5652V26.32H81.5652V28.16ZM97.9359 22.64C100.596 22.66 102.596 24.3 102.616 26.64C102.596 28.98 100.596 30.62 97.9359 30.6C95.2359 30.62 93.2359 28.98 93.2559 26.64C93.2359 24.3 95.2359 22.66 97.9359 22.64ZM95.3359 26.64C95.3359 28 96.4359 28.86 97.9359 28.84C99.3959 28.86 100.496 28 100.496 26.64C100.496 25.3 99.3959 24.44 97.9359 24.44C96.4359 24.44 95.3359 25.3 95.3359 26.64ZM95.8959 33.48V31.76H107.616V36.4H98.0559V37.8H108.136V39.52H95.9359V34.8H105.456V33.48H95.8959ZM105.456 31V22.08H107.616V31H105.456ZM126.301 31.2V32.92H110.221V31.2H126.301ZM111.861 26.24C111.881 24 114.381 22.64 118.261 22.64C122.081 22.64 124.581 24 124.581 26.24C124.581 28.46 122.081 29.84 118.261 29.84C114.381 29.84 111.881 28.46 111.861 26.24ZM112.181 39.4V34.24H114.381V37.64H124.461V39.4H112.181ZM114.141 26.24C114.121 27.42 115.661 28.06 118.261 28.08C120.801 28.06 122.361 27.42 122.341 26.24C122.361 25.06 120.801 24.38 118.261 24.36C115.661 24.38 114.121 25.06 114.141 26.24ZM148.352 30.84V32.56H141.352V34.24H146.392V39.68H144.192V36H134.032V34.24H139.192V32.56H132.272V30.84H148.352ZM133.032 28.44C136.712 28.16 138.792 26.96 139.052 25.44H133.832V23.76H139.192V22.08H141.352V23.76H146.752V25.44H141.492C141.752 26.96 143.832 28.16 147.552 28.44L146.872 30.08C143.712 29.82 141.372 28.84 140.292 27.3C139.172 28.84 136.832 29.82 133.712 30.08L133.032 28.44ZM163.357 22.08V29.12H166.077V30.92H163.357V39.72H161.237V22.08H163.357ZM149.437 26.56V24.8H153.637V22.32H155.797V24.8H159.877V26.56H149.437ZM150.277 31.84C150.257 29.4 152.137 27.68 154.717 27.68C157.257 27.68 159.137 29.4 159.157 31.84C159.137 34.28 157.257 35.98 154.717 36C152.137 35.98 150.257 34.28 150.277 31.84ZM152.357 31.84C152.337 33.28 153.337 34.2 154.717 34.2C156.077 34.2 157.057 33.28 157.077 31.84C157.057 30.4 156.077 29.46 154.717 29.48C153.337 29.46 152.337 30.4 152.357 31.84ZM182.962 30.08V31.72H166.802V30.08H182.962ZM168.682 34.32V32.8H181.002V36.8H170.882V38.04H181.522V39.56H168.722V35.4H178.842V34.32H168.682ZM168.802 23.96V22.48H180.962V26.44H171.002V27.6H181.242V29.08H168.842V25.04H178.762V23.96H168.802ZM187.567 36.6L185.967 42.08H184.087L185.087 36.6H187.567ZM203.17 23.16C203.17 27.7 200.17 30.9 195.01 32.32L194.17 30.64C198.13 29.56 200.45 27.5 200.83 24.92H195.09V23.16H203.17ZM196.73 34.84V33.08H208.77V39.68H206.61V34.84H196.73ZM203.33 28.28V26.48H206.61V22.12H208.77V32.4H206.61V28.28H203.33ZM226.055 22.08V32.56H223.895V28.28H220.895V26.48H223.895V22.08H226.055ZM211.215 30.8C214.055 29.84 215.555 27.46 215.575 25.12V25H211.895V23.24H221.415V25H217.775V25.12C217.775 27.26 219.195 29.42 221.935 30.32L220.815 32.04C218.855 31.4 217.475 30.04 216.715 28.4C215.935 30.26 214.475 31.78 212.375 32.52L211.215 30.8ZM214.095 36.36C214.075 34.26 216.375 33.02 220.095 33C223.835 33.02 226.115 34.26 226.135 36.36C226.115 38.5 223.835 39.74 220.095 39.76C216.375 39.74 214.075 38.5 214.095 36.36ZM216.255 36.36C216.235 37.48 217.635 38.06 220.095 38.04C222.555 38.06 223.955 37.48 223.975 36.36C223.955 35.28 222.555 34.68 220.095 34.68C217.635 34.68 216.235 35.28 216.255 36.36ZM243.26 22.08V39.76H241.06V22.08H243.26ZM229.14 29.6C229.12 25.8 231.06 23.38 233.74 23.36C236.4 23.38 238.34 25.8 238.34 29.6C238.34 33.44 236.4 35.86 233.74 35.84C231.06 35.86 229.12 33.44 229.14 29.6ZM231.22 29.6C231.22 32.32 232.24 33.9 233.74 33.88C235.22 33.9 236.24 32.32 236.26 29.6C236.24 26.92 235.22 25.32 233.74 25.32C232.24 25.32 231.22 26.92 231.22 29.6ZM256.871 33.56C256.891 35.04 257.571 36.58 259.071 37.54C260.611 36.52 261.331 34.92 261.351 33.56V32.84H263.471V33.56C263.451 35.42 264.551 37.14 266.871 37.88L265.791 39.48C264.091 38.9 262.951 37.76 262.331 36.34C261.771 37.74 260.751 39 259.151 39.64C257.471 39.02 256.411 37.82 255.851 36.4C255.211 37.76 254.091 38.88 252.431 39.48L251.391 37.88C253.651 37.08 254.771 35.28 254.791 33.56V32.84H256.871V33.56ZM250.951 27.24C250.931 24.76 252.971 23.04 255.711 23.04C258.411 23.04 260.451 24.76 260.431 27.24C260.451 29.7 258.411 31.42 255.711 31.44C252.971 31.42 250.931 29.7 250.951 27.24ZM253.071 27.24C253.051 28.68 254.151 29.62 255.711 29.6C257.211 29.62 258.311 28.68 258.311 27.24C258.311 25.8 257.211 24.86 255.711 24.88C254.151 24.86 253.051 25.8 253.071 27.24ZM263.151 32.12V22.12H265.311V32.12H263.151ZM281.716 22.08V28.76H284.436V30.56H281.716V39.76H279.556V22.08H281.716ZM268.636 35.44V23.76H276.876V25.52H270.796V33.64C273.536 33.62 275.696 33.48 278.156 33.04L278.396 34.88C275.656 35.36 273.276 35.44 270.076 35.44H268.636ZM294.242 23.56V24.96H297.802V22.12H299.962V34.96H297.802V30.52H294.242V32.04H285.962V23.56H294.242ZM288.122 30.32H292.122V25.28H288.122V30.32ZM288.322 39.4V33.76H290.522V37.64H300.362V39.4H288.322ZM294.242 28.76H297.802V26.76H294.242V28.76ZM321.172 22.12V27.2H323.652V29H321.172V35.08H318.972V22.12H321.172ZM307.852 32.2V23.36H309.972V26.04H314.092V23.36H316.252V32.2H307.852ZM309.852 39.4V33.76H312.012V37.64H321.852V39.4H309.852ZM309.972 30.48H314.092V27.72H309.972V30.48ZM332.578 23.08C336.278 23.08 339.138 25.06 339.138 28.08C339.138 31.1 336.278 33.08 332.578 33.08C328.858 33.08 325.998 31.1 326.018 28.08C325.998 25.06 328.858 23.08 332.578 23.08ZM324.538 37.52V35.72H340.658V37.52H324.538ZM328.098 28.08C328.098 30.06 329.978 31.3 332.578 31.28C335.118 31.3 336.998 30.06 337.018 28.08C336.998 26.1 335.118 24.82 332.578 24.84C329.978 24.82 328.098 26.1 328.098 28.08ZM357.943 35.88V37.68H341.823V35.88H348.783V33H343.743V27.24H353.903V25.04H343.703V23.28H356.023V28.96H345.903V31.24H356.423V33H350.903V35.88H357.943ZM362.748 23.84L362.508 33.84H360.308L360.068 23.84H362.748ZM359.868 36.64C359.868 35.82 360.568 35.14 361.388 35.12C362.208 35.14 362.908 35.82 362.908 36.64C362.908 37.48 362.208 38.16 361.388 38.16C360.568 38.16 359.868 37.48 359.868 36.64ZM62.76 50.64C62.74 52.54 65.16 54.26 68.84 54.68L68.12 56.28C65.14 55.94 62.76 54.74 61.62 53.04C60.48 54.74 58.1 55.94 55.16 56.28L54.4 54.68C58.1 54.26 60.5 52.54 60.52 50.64V50.16H62.76V50.64ZM53.6 58.88V57.16H69.68V58.88H62.68V60.24H67.68V64.64H57.64V65.92H68.16V67.6H55.48V63.08H65.52V61.92H55.48V60.24H60.52V58.88H53.6ZM80.7252 51.92V53.16C80.7252 54.74 80.7252 56.96 80.2452 60L78.0852 59.84C78.5452 57.14 78.5852 55.16 78.5652 53.64H71.6452V51.92H80.7252ZM70.7252 62.28C71.7652 62.28 72.9252 62.26 74.1252 62.24V56.96H76.2852V62.16C78.0852 62.1 79.9252 61.96 81.6052 61.76L81.7252 63.36C78.0852 63.98 74.0452 64.04 70.9252 64.04L70.7252 62.28ZM82.5252 67.72V50.08H84.7252V57.28H87.2852V59.12H84.7252V67.72H82.5252ZM97.9359 50.64C100.596 50.66 102.596 52.3 102.616 54.64C102.596 56.98 100.596 58.62 97.9359 58.6C95.2359 58.62 93.2359 56.98 93.2559 54.64C93.2359 52.3 95.2359 50.66 97.9359 50.64ZM95.3359 54.64C95.3359 56 96.4359 56.86 97.9359 56.84C99.3959 56.86 100.496 56 100.496 54.64C100.496 53.3 99.3959 52.44 97.9359 52.44C96.4359 52.44 95.3359 53.3 95.3359 54.64ZM95.8959 61.48V59.76H107.616V64.4H98.0559V65.8H108.136V67.52H95.9359V62.8H105.456V61.48H95.8959ZM105.456 59V50.08H107.616V59H105.456ZM116.461 52.88C116.461 55.12 117.901 57.22 120.621 58.08L119.461 59.76C117.541 59.12 116.181 57.84 115.401 56.2C114.641 58.08 113.221 59.56 111.181 60.28L110.021 58.56C112.861 57.56 114.281 55.22 114.301 52.68V51.04H116.461V52.88ZM112.421 64.36C112.421 62.26 114.701 61.02 118.381 61.04C122.041 61.02 124.301 62.26 124.301 64.36C124.301 66.5 122.041 67.72 118.381 67.72C114.701 67.72 112.421 66.5 112.421 64.36ZM114.581 64.36C114.581 65.44 115.961 66 118.381 66C120.801 66 122.161 65.44 122.181 64.36C122.161 63.32 120.801 62.74 118.381 62.72C115.961 62.74 114.581 63.32 114.581 64.36ZM121.941 60.64V50.08H124.141V54.36H126.621V56.16H124.141V60.64H121.941ZM135.546 50.36C139.546 50.36 141.866 51.42 141.866 53.36C141.866 55.36 139.546 56.42 135.546 56.44C131.506 56.42 129.166 55.36 129.146 53.36C129.166 51.42 131.506 50.36 135.546 50.36ZM127.506 59.12V57.36H143.586V59.12H127.506ZM129.386 67.6V63.08H139.426V61.92H129.386V60.28H141.586V64.6H131.546V65.92H142.066V67.6H129.386ZM131.426 53.36C131.426 54.36 132.826 54.8 135.546 54.8C138.246 54.8 139.646 54.36 139.626 53.36C139.646 52.48 138.246 51.96 135.546 51.96C132.826 51.96 131.426 52.48 131.426 53.36ZM163.477 50.08V54.56H165.957V56.36H163.477V60.72H161.277V50.08H163.477ZM149.557 53.52V51.8H153.717V49.96H155.877V51.8H160.037V53.52H149.557ZM150.477 57.32C150.457 55.44 152.217 54.16 154.797 54.16C157.357 54.16 159.097 55.44 159.117 57.32C159.097 59.22 157.357 60.5 154.797 60.48C152.217 60.5 150.457 59.22 150.477 57.32ZM152.077 67.52V61.56H163.477V67.52H152.077ZM152.557 57.32C152.557 58.32 153.457 58.88 154.797 58.88C156.137 58.88 157.037 58.32 157.037 57.32C157.037 56.38 156.137 55.8 154.797 55.8C153.457 55.8 152.557 56.38 152.557 57.32ZM154.197 65.76H161.317V63.28H154.197V65.76ZM171.162 52.16C171.162 56.32 170.702 60.34 168.362 63.8L166.642 62.88C168.602 60.14 169.182 57.28 169.302 53.92H167.162V52.16H171.162ZM170.642 63.84C172.762 60.82 173.182 57.42 173.262 53.92H171.722V52.16H175.122C175.122 53.66 175.082 55.24 174.922 56.8H176.722V50.52H178.762V66.92H176.722V58.56H174.682C174.302 60.74 173.622 62.88 172.322 64.8L170.642 63.84ZM180.082 67.72V50.08H182.162V67.72H180.082ZM205.333 56.88V58.68H202.693V67.68H200.533V50.08H202.693V56.88H205.333ZM189.493 63.32V51.8H191.653V61.52C194.013 61.5 196.513 61.28 199.173 60.76L199.413 62.56C196.433 63.18 193.613 63.34 190.973 63.32H189.493ZM220.418 53.88V55.64H208.218V50.32H210.378V53.88H220.418ZM206.138 58.56V56.84H222.298V58.56H215.258V60.12H220.298V64.52H210.258V65.88H220.898V67.6H208.098V63H218.138V61.76H208.058V60.12H213.098V58.56H206.138ZM242.909 50.12V63.04H240.749V50.12H242.909ZM228.429 59.4C231.269 58.54 232.749 56.42 232.749 54.2V53.96H228.989V52.24H232.749V50.16H234.949V52.24H238.669V53.96H234.909V54.2C234.909 56.3 236.429 58.28 239.269 59.08L238.189 60.8C236.149 60.2 234.689 58.94 233.869 57.36C233.069 59.08 231.589 60.44 229.509 61.08L228.429 59.4ZM231.229 67.4V61.88H233.429V65.64H243.389V67.4H231.229ZM259.634 51.16V52.72C259.614 54.38 259.614 56.2 259.134 58.68H261.594V60.44H254.554V67.76H252.394V60.44H245.514V58.68H256.934C257.434 56.28 257.454 54.5 257.474 52.92H247.394V51.16H259.634ZM278.919 58.08V59.72H262.759V58.08H278.919ZM264.639 62.32V60.8H276.959V64.8H266.839V66.04H277.479V67.56H264.679V63.4H274.799V62.32H264.639ZM264.759 51.96V50.48H276.919V54.44H266.959V55.6H277.199V57.08H264.799V53.04H274.719V51.96H264.759ZM291.17 53.72C291.17 55.6 292.61 57.44 295.37 58.2L294.41 59.84C292.37 59.3 290.91 58.12 290.13 56.64C289.33 58.28 287.87 59.56 285.77 60.16L284.73 58.48C287.53 57.72 289.01 55.76 289.01 53.72V53.64H285.33V51.92H289.01V50H291.21V51.92H294.85V53.64H291.17V53.72ZM286.49 66C289.49 65.6 291.45 64.26 291.89 62.76H287.21V61.04H299.01V62.76H294.33C294.77 64.22 296.75 65.6 299.77 66L298.97 67.68C296.21 67.3 294.13 66.1 293.11 64.5C292.09 66.1 290.01 67.26 287.25 67.64L286.49 66ZM296.57 60.2V50.08H298.77V54.2H301.25V55.96H298.77V60.2H296.57ZM306.855 51.36C309.515 51.38 311.435 53.8 311.455 57.6C311.435 61.44 309.515 63.86 306.855 63.84C304.195 63.86 302.255 61.44 302.295 57.6C302.255 53.8 304.195 51.38 306.855 51.36ZM304.375 57.6C304.355 60.32 305.375 61.9 306.855 61.88C308.375 61.9 309.355 60.32 309.375 57.6C309.355 54.92 308.375 53.32 306.855 53.32C305.375 53.32 304.355 54.92 304.375 57.6ZM313.775 67.72V50.08H315.935V56.88H318.655V58.68H315.935V67.72H313.775ZM322.46 51.52V53.88H327.06V51.52H329.22V59.56H325.86V62.4C327.3 62.34 328.74 62.22 330.1 62.04L330.26 63.64C326.56 64.28 322.52 64.3 319.5 64.32L319.18 62.52C320.54 62.52 322.08 62.52 323.7 62.48V59.56H320.3V51.52H322.46ZM322.46 57.84H327.06V55.52H322.46V57.84ZM331.1 67.72V50.08H333.3V57.24H335.86V59.08H333.3V67.72H331.1ZM352.825 63.8V65.6H336.705V63.8H340.425V59.36C339.025 58.54 338.165 57.28 338.185 55.72C338.165 52.9 340.925 51.04 344.745 51.04C348.525 51.04 351.305 52.9 351.305 55.72C351.305 57.26 350.465 58.5 349.105 59.32V63.8H352.825ZM340.305 55.72C340.285 57.52 342.085 58.66 344.745 58.68C347.345 58.66 349.165 57.52 349.185 55.72C349.165 53.86 347.345 52.76 344.745 52.76C342.085 52.76 340.285 53.86 340.305 55.72ZM342.585 63.8H346.905V60.14C346.245 60.28 345.505 60.36 344.745 60.36C343.985 60.36 343.245 60.28 342.585 60.14V63.8ZM354.831 62.04C354.751 59.54 356.011 58.3 357.711 58.32C358.611 58.3 359.311 58.64 360.311 59.52C360.911 60.02 361.211 60.28 361.711 60.28C362.391 60.28 362.891 59.74 362.871 58.64H364.871C364.931 61.14 363.631 62.4 361.951 62.4C361.031 62.4 360.311 62.02 359.351 61.16C358.731 60.64 358.451 60.42 357.991 60.4C357.291 60.42 356.791 60.88 356.831 62.04H354.831Z" fill="#3A3A3A"/>
</svg>
