<svg width="34" height="34" viewBox="0 0 34 34" fill="none" xmlns="http://www.w3.org/2000/svg">
<circle cx="17" cy="17" r="17" fill="#D7DFE0" fill-opacity="0.5"/>
<path d="M23 12C23 12.5523 22.5523 13 22 13C21.4477 13 21 12.5523 21 12C21 11.4477 21.4477 11 22 11C22.5523 11 23 11.4477 23 12Z" fill="#242E2F"/>
<path fill-rule="evenodd" clip-rule="evenodd" d="M21 9.5H13C11.067 9.5 9.5 11.067 9.5 13V21C9.5 22.933 11.067 24.5 13 24.5H21C22.933 24.5 24.5 22.933 24.5 21V13C24.5 11.067 22.933 9.5 21 9.5ZM13 8C10.2386 8 8 10.2386 8 13V21C8 23.7614 10.2386 26 13 26H21C23.7614 26 26 23.7614 26 21V13C26 10.2386 23.7614 8 21 8H13Z" fill="#242E2F"/>
<path fill-rule="evenodd" clip-rule="evenodd" d="M12.25 17C12.25 14.3766 14.3766 12.25 17 12.25C19.6234 12.25 21.75 14.3766 21.75 17C21.75 19.6234 19.6234 21.75 17 21.75C14.3766 21.75 12.25 19.6234 12.25 17ZM17 13.75C15.2051 13.75 13.75 15.2051 13.75 17C13.75 18.7949 15.2051 20.25 17 20.25C18.7949 20.25 20.25 18.7949 20.25 17C20.25 15.2051 18.7949 13.75 17 13.75Z" fill="#242E2F"/>
</svg>
