<svg width="374" height="108" viewBox="0 0 374 108" fill="none" xmlns="http://www.w3.org/2000/svg">
<path fill-rule="evenodd" clip-rule="evenodd" d="M44.5404 0C19.9414 0 0 19.9415 0 44.5405C0 69.1395 19.9414 89.0809 44.5404 89.0809H67.7852C67.8669 89.3219 67.9989 89.5551 68.1869 89.7682L83.6695 107.318C84.8886 108.7 87.1693 107.838 87.1693 105.995V89.0809H329.46C354.059 89.0809 374 69.1395 374 44.5405C374 19.9415 354.059 0 329.46 0H44.5404Z" fill="#C5F3F7"/>
<path d="M68.28 22.0955V39.7755H66.08V22.0955H68.28ZM54.16 29.6155C54.14 25.8155 56.08 23.3955 58.76 23.3755C61.42 23.3955 63.36 25.8155 63.36 29.6155C63.36 33.4555 61.42 35.8755 58.76 35.8555C56.08 35.8755 54.14 33.4555 54.16 29.6155ZM56.24 29.6155C56.24 32.3355 57.26 33.9155 58.76 33.8955C60.24 33.9155 61.26 32.3355 61.28 29.6155C61.26 26.9355 60.24 25.3355 58.76 25.3355C57.26 25.3355 56.24 26.9355 56.24 29.6155ZM84.8108 23.2555C84.7908 25.3155 87.2508 27.4755 90.8508 27.9755L90.0108 29.6955C87.1308 29.2555 84.8108 27.8355 83.6908 25.9555C82.5508 27.8755 80.2308 29.2955 77.3308 29.7355L76.4908 28.0155C80.1108 27.4955 82.5508 25.3755 82.5708 23.2555V22.5355H84.8108V23.2555ZM75.6108 32.6155V30.8555H91.7708V32.6155H84.9308V35.8555H82.7708V32.6155H75.6108ZM77.5708 39.4155V34.2555H79.7308V37.6555H89.9708V39.4155H77.5708ZM106.856 22.0955V27.1755H109.336V28.9755H106.856V34.8155H104.656V22.0955H106.856ZM92.8559 31.2955C96.9159 30.0955 99.3159 27.8955 99.6759 25.2155H93.6159V23.4555H102.056C102.056 28.1355 98.9959 31.4755 93.7759 33.0155L92.8559 31.2955ZM95.4959 39.4155V33.5355H97.6959V37.6555H107.496V39.4155H95.4959ZM113.661 36.6155L112.061 42.0955H110.181L111.181 36.6155H113.661ZM124.904 23.3755C127.304 23.3955 129.084 25.3955 129.384 28.6155H132.744V22.0955H134.904V39.7755H132.744V30.3355H129.404C129.184 33.7555 127.384 35.8755 124.904 35.8555C122.264 35.8755 120.384 33.4555 120.384 29.6155C120.384 25.8155 122.264 23.3955 124.904 23.3755ZM122.464 29.6155C122.464 32.3355 123.464 33.9155 124.904 33.8955C126.384 33.9155 127.364 32.3355 127.384 29.6155C127.364 26.9355 126.384 25.3355 124.904 25.3355C123.464 25.3355 122.464 26.9355 122.464 29.6155ZM152.789 37.6555V39.4155H140.189V33.8155H142.389V37.6555H152.789ZM137.749 32.2955V23.4555H142.309V25.2555H139.869V30.5355C140.709 30.4955 141.509 30.4155 142.429 30.2155L142.629 31.9755C141.149 32.2955 139.969 32.2955 138.549 32.2955H137.749ZM143.189 32.2955V23.4555H148.149V25.2555H145.349V30.5555C146.709 30.5155 147.609 30.4355 148.629 30.1755L148.829 31.9355C147.429 32.2555 146.309 32.2955 144.109 32.2955H143.189ZM147.469 28.6155V26.8555H150.189V22.1355H152.309V34.8955H150.189V28.6155H147.469ZM168.6 22.6555C168.58 24.5555 171 26.2755 174.68 26.6955L173.96 28.2955C170.98 27.9555 168.6 26.7555 167.46 25.0555C166.32 26.7555 163.94 27.9555 161 28.2955L160.24 26.6955C163.94 26.2755 166.34 24.5555 166.36 22.6555V22.1755H168.6V22.6555ZM159.44 30.8955V29.1755H175.52V30.8955H168.52V32.2555H173.52V36.6555H163.48V37.9355H174V39.6155H161.32V35.0955H171.36V33.9355H161.32V32.2555H166.36V30.8955H159.44ZM184.765 22.3755C188.765 22.3755 191.085 23.4355 191.085 25.3755C191.085 27.3755 188.765 28.4355 184.765 28.4555C180.725 28.4355 178.385 27.3755 178.365 25.3755C178.385 23.4355 180.725 22.3755 184.765 22.3755ZM176.725 31.1355V29.3755H192.805V31.1355H176.725ZM178.605 39.6155V35.0955H188.645V33.9355H178.605V32.2955H190.805V36.6155H180.765V37.9355H191.285V39.6155H178.605ZM180.645 25.3755C180.645 26.3755 182.045 26.8155 184.765 26.8155C187.465 26.8155 188.865 26.3755 188.845 25.3755C188.865 24.4955 187.465 23.9755 184.765 23.9755C182.045 23.9755 180.645 24.4955 180.645 25.3755ZM207.736 23.8155V35.3755H199.376V23.8155H207.736ZM201.496 33.6555H205.576V25.5355H201.496V33.6555ZM210.416 39.7355V22.0955H212.576V28.8955H215.296V30.6955H212.576V39.7355H210.416ZM222.701 26.3355C222.701 29.5755 224.421 32.8155 227.261 34.0555L225.981 35.7755C223.961 34.8355 222.461 32.9755 221.641 30.6755C220.841 33.1555 219.321 35.1955 217.181 36.2155L215.861 34.3755C218.801 33.1155 220.521 29.7355 220.541 26.3355V23.5355H222.701V26.3355ZM228.541 39.7755V22.0955H230.741V39.7755H228.541ZM247.746 23.6955V25.4155C247.726 27.6155 247.726 30.0755 247.066 33.7355L244.866 33.5355C245.546 30.0955 245.546 27.5755 245.546 25.4555H235.026V23.6955H247.746ZM233.346 37.4555V35.6955H239.266V29.5355H241.426V35.6955H249.426V37.4555H233.346ZM270.077 22.1355V31.8955H267.917V22.1355H270.077ZM255.397 29.8955C258.237 28.9955 259.717 26.7555 259.717 24.4555V22.7355H261.957V24.4555C261.957 26.6555 263.457 28.7755 266.237 29.5755L265.197 31.2955C263.137 30.6755 261.657 29.3755 260.857 27.6955C260.057 29.4955 258.557 30.9355 256.437 31.6155L255.397 29.8955ZM257.997 39.5355V37.7755H260.397V34.4955H258.157V32.7755H270.197V34.4955H267.957V37.7755H270.357V39.5355H257.997ZM262.557 37.7755H265.837V34.4955H262.557V37.7755ZM289.122 28.8955V30.6955H286.482V39.6955H284.322V22.0955H286.482V28.8955H289.122ZM273.282 35.3355V23.8155H275.442V33.5355C277.802 33.5155 280.302 33.2955 282.962 32.7755L283.202 34.5755C280.222 35.1955 277.402 35.3555 274.762 35.3355H273.282ZM306.087 35.8155V37.6155H289.967V35.8155H293.687V31.3755C292.287 30.5555 291.427 29.2955 291.447 27.7355C291.427 24.9155 294.187 23.0555 298.007 23.0555C301.787 23.0555 304.567 24.9155 304.567 27.7355C304.567 29.2755 303.727 30.5155 302.367 31.3355V35.8155H306.087ZM293.567 27.7355C293.547 29.5355 295.347 30.6755 298.007 30.6955C300.607 30.6755 302.427 29.5355 302.447 27.7355C302.427 25.8755 300.607 24.7755 298.007 24.7755C295.347 24.7755 293.547 25.8755 293.567 27.7355ZM295.847 35.8155H300.167V32.1555C299.507 32.2955 298.767 32.3755 298.007 32.3755C297.247 32.3755 296.507 32.2955 295.847 32.1555V35.8155ZM310.212 33.6955C310.252 31.1955 310.952 30.4355 312.172 29.6555C313.012 29.1355 313.652 28.4755 313.652 27.4955C313.652 26.4155 312.792 25.7155 311.732 25.6955C310.752 25.7155 309.832 26.3355 309.772 27.6155H307.292C307.372 25.0155 309.332 23.6755 311.732 23.6955C314.392 23.6755 316.192 25.1555 316.212 27.4555C316.192 29.0555 315.412 30.0955 314.132 30.8555C313.012 31.5355 312.532 32.2155 312.532 33.6955V33.8555H310.212V33.6955ZM309.892 36.6555C309.892 35.8355 310.592 35.1555 311.412 35.1355C312.232 35.1555 312.932 35.8355 312.932 36.6555C312.932 37.4955 312.232 38.1755 311.412 38.1755C310.592 38.1755 309.892 37.4955 309.892 36.6555ZM63.56 50.9755V52.6955H59.88C59.9 54.5955 61.36 56.4955 64.12 57.2955L63.12 58.9355C61.08 58.3755 59.64 57.1755 58.84 55.6555C58.06 57.3955 56.56 58.7355 54.4 59.3755L53.32 57.6555C56.16 56.8355 57.66 54.7955 57.68 52.6955H53.96V50.9755H63.56ZM55.96 61.5755V59.8955H67.52V64.4155H58.12V65.8955H68.08V67.5755H56V62.8555H65.36V61.5755H55.96ZM65.32 59.1755V50.0955H67.52V53.6955H70V55.4555H67.52V59.1755H65.32ZM91.7708 63.8155V65.6155H75.6508V63.8155H82.6108V59.9755H77.4108V51.4555H89.9308V59.9755H84.7308V63.8155H91.7708ZM79.5308 58.2555H87.7708V53.2155H79.5308V58.2555ZM109.056 63.8955V65.6555H92.9359V63.8955H109.056ZM94.8159 53.0955V51.3355H107.136V57.0555H97.0159V59.3355H107.536V61.0555H94.8559V55.2955H105.016V53.0955H94.8159ZM118.021 51.3355C118.021 52.6155 117.841 53.7955 117.461 54.8555H119.621V50.4555H121.701V59.9755H119.621V56.6155H116.601C115.501 58.3155 113.761 59.6555 111.341 60.6555L110.261 59.0555C113.641 57.7155 115.421 55.7355 115.761 53.0955H111.141V51.3355H118.021ZM111.101 66.0555C113.381 65.2555 114.521 63.4155 114.541 61.6955V60.7755H116.621V61.6955C116.601 63.1755 117.261 64.6955 118.781 65.6755C120.301 64.6155 121.021 63.0155 121.021 61.6955V60.7755H123.141V61.6955C123.141 63.5355 124.261 65.3155 126.581 66.0555L125.501 67.6555C123.781 67.0355 122.641 65.8955 122.041 64.4755C121.481 65.8755 120.441 67.1155 118.821 67.7755C117.141 67.1555 116.101 65.9355 115.561 64.5155C114.941 65.8955 113.821 67.0355 112.181 67.6555L111.101 66.0555ZM123.261 60.2155V50.1355H125.301V60.2155H123.261ZM141.306 50.0955V56.7755H144.026V58.5755H141.306V67.7755H139.146V50.0955H141.306ZM128.226 63.4555V51.7755H136.466V53.5355H130.386V61.6555C133.126 61.6355 135.286 61.4955 137.746 61.0555L137.986 62.8955C135.246 63.3755 132.866 63.4555 129.666 63.4555H128.226ZM153.831 51.5755V52.9755H157.391V50.1355H159.551V62.9755H157.391V58.5355H153.831V60.0555H145.551V51.5755H153.831ZM147.711 58.3355H151.711V53.2955H147.711V58.3355ZM147.911 67.4155V61.7755H150.111V65.6555H159.951V67.4155H147.911ZM153.831 56.7755H157.391V54.7755H153.831V56.7755ZM165.517 64.6155L163.917 70.0955H162.037L163.037 64.6155H165.517ZM188.079 60.0555V61.8155H181.039V67.7355H178.879V61.8155H171.919V60.0555H188.079ZM173.599 54.6955C173.619 52.2755 176.199 50.7355 179.959 50.7355C183.719 50.7355 186.319 52.2755 186.319 54.6955C186.319 57.0755 183.719 58.5955 179.959 58.6155C176.199 58.5955 173.619 57.0755 173.599 54.6955ZM175.839 54.6955C175.839 56.0555 177.459 56.8755 179.959 56.8555C182.459 56.8755 184.079 56.0555 184.079 54.6955C184.079 53.2955 182.459 52.4755 179.959 52.4955C177.459 52.4755 175.839 53.2955 175.839 54.6955ZM203.925 50.0955V67.7755H201.765V50.0955H203.925ZM190.205 63.6155V56.5355H196.285V53.4155H190.205V51.6555H198.525V58.2555H192.445V61.8155C195.225 61.7955 197.605 61.6555 200.365 61.2155L200.565 62.9755C197.565 63.4955 194.925 63.5955 191.765 63.6155H190.205ZM220.33 50.0955V57.0155H222.97V58.8155H220.33V67.6955H218.17V50.0955H220.33ZM206.41 62.8955C210.73 60.7355 213.05 57.7355 213.47 53.7355H207.37V51.9355H215.69C215.67 57.1155 213.51 61.6755 207.65 64.5755L206.41 62.8955ZM242.9 58.1355V59.8555H237.66V63.8955H244.7V65.6555H228.58V63.8955H235.54V59.8555H230.54V51.4155H242.74V53.1355H232.7V58.1355H242.9ZM251.146 51.1755C253.846 51.1955 255.906 52.9355 255.906 55.4555C255.906 57.6155 254.386 59.1955 252.226 59.5955V62.2155C253.706 62.1355 255.166 62.0355 256.546 61.8555L256.706 63.4555C253.006 64.1155 248.966 64.1355 245.946 64.0955L245.626 62.3355C246.966 62.3355 248.486 62.3155 250.066 62.2755V59.5955C247.846 59.2155 246.326 57.6155 246.346 55.4555C246.326 52.9355 248.346 51.1955 251.146 51.1755ZM248.466 55.4555C248.446 56.9155 249.586 57.8755 251.146 57.8555C252.646 57.8755 253.786 56.9155 253.786 55.4555C253.786 53.9555 252.646 53.0355 251.146 53.0155C249.586 53.0355 248.446 53.9555 248.466 55.4555ZM257.546 67.7355V50.0955H259.746V57.1355H262.306V58.9755H259.746V67.7355H257.546ZM279.231 57.2555V58.9755H272.231V60.3355H277.231V64.6555H267.191V65.9355H277.711V67.6155H265.031V63.1355H275.071V61.9355H265.031V60.3355H270.111V58.9755H263.151V57.2555H279.231ZM263.911 54.9755C267.171 54.7555 269.311 53.6355 269.811 52.3355H264.591V50.6555H277.791V52.3355H272.531C273.031 53.6155 275.191 54.7555 278.471 54.9755L277.791 56.6155C274.611 56.3755 272.231 55.3155 271.171 53.7355C270.091 55.2955 267.731 56.3755 264.591 56.6155L263.911 54.9755ZM295.636 50.0955V67.7355H293.596V50.0955H295.636ZM280.276 62.4955C283.936 60.3155 285.616 57.5555 285.936 54.0155H281.196V52.2555H288.116C288.116 53.9555 287.896 55.5755 287.416 57.0555H289.876V50.5355H291.916V66.9355H289.876V58.7755H286.716C285.676 60.7955 284.016 62.5755 281.516 64.0155L280.276 62.4955ZM313.841 63.8155V65.6155H297.721V63.8155H301.441V59.3755C300.041 58.5555 299.181 57.2955 299.201 55.7355C299.181 52.9155 301.941 51.0555 305.761 51.0555C309.541 51.0555 312.321 52.9155 312.321 55.7355C312.321 57.2755 311.481 58.5155 310.121 59.3355V63.8155H313.841ZM301.321 55.7355C301.301 57.5355 303.101 58.6755 305.761 58.6955C308.361 58.6755 310.181 57.5355 310.201 55.7355C310.181 53.8755 308.361 52.7755 305.761 52.7755C303.101 52.7755 301.301 53.8755 301.321 55.7355ZM303.601 63.8155H307.921V60.1555C307.261 60.2955 306.521 60.3755 305.761 60.3755C305.001 60.3755 304.261 60.2955 303.601 60.1555V63.8155ZM318.646 51.8555L318.406 61.8555H316.206L315.966 51.8555H318.646ZM315.766 64.6555C315.766 63.8355 316.466 63.1555 317.286 63.1355C318.106 63.1555 318.806 63.8355 318.806 64.6555C318.806 65.4955 318.106 66.1755 317.286 66.1755C316.466 66.1755 315.766 65.4955 315.766 64.6555Z" fill="#222222"/>
</svg>
