<svg width="329" height="218" viewBox="0 0 329 218" fill="none" xmlns="http://www.w3.org/2000/svg">
<path d="M44.3605 218.055C44.8811 210.576 46.8367 204.028 49.1313 198.678C22.8115 204.606 9.92726 195.019 6.39284 188.649C3.97148 184.285 4.19753 178.986 7.02301 174.872C16.2838 161.382 43.5557 162.905 48.597 163.313C30.805 161.495 16.9995 144.158 24.9554 133.277C27.5103 129.782 33.7401 124.275 49.4258 124.422C56.2481 124.487 65.1766 125.873 77.0094 128.19C80.5644 128.885 83.9584 129.772 87.2017 130.799C152.297 149.152 140.948 181.488 157.164 209.029C159.274 212.613 161.678 215.587 164.267 218.055H44.3537H44.3605Z" fill="#47413F"/>
<path d="M221.243 218.055L262.022 183.285C262.022 183.285 255.833 198.925 244.347 218.055H221.243Z" fill="#47413F"/>
<path d="M159.476 90.2784L147.427 88.1596C139.358 86.7391 132.012 82.618 126.597 76.4739L120.265 69.2858C119.183 68.057 120.241 66.1539 121.854 66.4208L162.318 73.1194L159.476 90.2818V90.2784Z" fill="#DA7E35"/>
<path d="M151.565 55.3754L139.475 53.4997C131.379 52.2435 123.098 53.7769 115.991 57.8502L107.679 62.6148C106.258 63.4295 106.645 65.5722 108.261 65.8392L148.726 72.5378L151.568 55.3754H151.565Z" fill="#ECB350"/>
<path d="M246.422 158.962C246.337 159.483 246.258 160.003 246.189 160.523C244.35 174.235 248.96 188.033 258.245 198.291L276.126 218.055H118.638C119.303 210.603 120.204 203.744 121.115 197.764C127.748 154.068 140.756 78.1067 144.575 55.923C144.688 53.7255 144.914 51.5143 145.284 49.2894C150.599 17.1964 180.943 -4.51502 213.058 0.80073C245.172 6.11648 266.896 36.4433 261.577 68.5397C261.354 69.8747 246.422 158.962 246.422 158.962Z" fill="white"/>
<path opacity="0.8" d="M30.0414 109.33C18.6881 109.234 6.46142 93.455 1.81736 72.0927C0.406326 65.5995 -0.15535 59.2843 0.036438 53.5064L39.3261 44.9697C41.9016 50.1486 44.0147 56.1249 45.4257 62.6181C50.0869 84.0489 45.4771 103.532 35.1204 108.252L42.6653 142.936L61.4847 147.328L22.7636 155.741L37.6445 144.258L30.0482 109.33H30.0414Z" fill="#AFDBF8"/>
<path d="M41.7235 66.6777C41.8126 67.0508 41.9016 67.4171 41.9838 67.797C45.9703 86.1232 41.4461 102.704 31.8703 104.785C22.291 106.866 11.2836 93.633 7.29713 75.3103C7.21494 74.9372 7.14643 74.5743 7.07451 74.2047L41.7235 66.6777Z" fill="#8C384A"/>
<path d="M177.196 43.4908C177.196 43.4908 165.863 33.9684 153.637 39.5922" stroke="black" stroke-width="3" stroke-linecap="round" stroke-linejoin="round"/>
<path d="M215.989 218.055C215.239 208.95 215.814 201.036 217.178 194.259C223.192 164.319 257.186 149.207 283.174 165.271C301.699 176.72 317.193 197.894 328.782 218.058H215.989V218.055Z" fill="#47413F"/>
<path d="M171.453 42.5395C170.018 51.2097 174.946 59.2466 182.463 60.4892C189.981 61.7351 197.242 55.7142 198.677 47.044C200.112 38.3739 195.183 30.3369 187.666 29.0944C180.148 27.8485 172.888 33.8693 171.453 42.5395Z" fill="black"/>
<path d="M130.615 35.7793C129.18 44.4494 134.108 52.4864 141.626 53.7289C149.143 54.9748 156.404 48.954 157.839 40.2838C159.274 31.6136 154.346 23.5767 146.828 22.3341C139.311 21.0882 132.05 27.1091 130.615 35.7793Z" fill="black"/>
</svg>
